# File created by Blade
# Date/Time:  Fri Jan 16 17:45:47 2015
#---------------------------------------------------------
:version 1.10
:name HOM
:units
  mass 1.0
  length 1.000000
  angle deg
:documentation
     Acclaim Skeleton File
:root
   axis xyz
   order TX TY TZ RX RY RZ
   position 0.000000 0.000000 0.000000
   orientation 0 0 0
:bonedata
   begin
      id 1
      name Spine_dum
      direction 0.000000 1.000000 0.000000
      length 7.170412
      axis 0.0 0.0 0.0 xyz
   end
   begin
      id 2
      name LeftUpLeg_dum
      direction 1.000000 0.000000 0.000000
      length 4.318350
      axis 0.0 0.0 0.0 xyz
   end
   begin
      id 3
      name RightUpLeg_dum
      direction -1.000000 0.000000 0.000000
      length 4.318350
      axis 0.0 0.0 0.0 xyz
   end
   begin
      id 4
      name Spine
      direction 0.000000 1.000000 0.000000
      length 0.000000
      axis 0.0 0.0 0.0 xyz
      dof rx ry rz
   end
   begin
      id 5
      name Spine_dum1
      direction 0.000000 1.000000 0.000000
      length 14.276153
      axis 0.0 0.0 0.0 xyz
   end
   begin
      id 6
      name Spine_dum2
      direction 0.000000 1.000000 0.000000
      length 10.718243
      axis 0.0 0.0 0.0 xyz
   end
   begin
      id 7
      name Spine_dum3
      direction 0.000000 1.000000 0.000000
      length 10.718243
      axis 0.0 0.0 0.0 xyz
   end
   begin
      id 8
      name Head
      direction 0.000000 1.000000 0.000000
      length 4.527550
      axis 0.0 0.0 0.0 xyz
      dof rx ry rz
   end
   begin
      id 9
      name LeftShoulder
      direction 1.000000 0.000000 0.000000
      length 7.058872
      axis 0.0 0.0 -90.0 xyz
      dof rx ry rz
   end
   begin
      id 10
      name LeftArm
      direction 1.000000 0.000000 0.000000
      length 10.955525
      axis 0.0 0.0 -90.0 xyz
      dof rx ry rz
   end
   begin
      id 11
      name LeftForeArm
      direction 1.000000 0.000000 0.000000
      length 8.193716
      axis 0.0 0.0 -90.0 xyz
      dof ry rz rx
   end
   begin
      id 12
      name LeftHand
      direction 0.000000 0.000000 0.000000
      length 0.000000
      axis 0.0 0.0 -90.0 xyz
      dof rx ry rz
   end
   begin
      id 13
      name LeftHand_dum1
      direction 0.000000 0.000000 0.000000
      length 0.000000
      axis 0.0 0.0 -90.0 xyz
   end
   begin
      id 14
      name LeftHand_dum2
      direction 1.000000 0.000000 0.000000
      length 3.937000
      axis 0.0 0.0 -90.0 xyz
   end
   begin
      id 15
      name LeftHandThumb1
      direction 0.000000 0.000000 1.000000
      length 3.937000
      axis 0.0 0.0 -90.0 xyz
      dof rx rz ry
   end
   begin
      id 16
      name RightShoulder
      direction -1.000000 0.000000 0.000000
      length 7.058872
      axis 0.0 0.0 90.0 xyz
      dof rx ry rz
   end
   begin
      id 17
      name RightArm
      direction -1.000000 0.000000 0.000000
      length 10.955525
      axis 0.0 0.0 90.0 xyz
      dof rx ry rz
   end
   begin
      id 18
      name RightForeArm
      direction -1.000000 0.000000 0.000000
      length 8.193716
      axis 0.0 0.0 90.0 xyz
      dof ry rz rx
   end
   begin
      id 19
      name RightHand
      direction 0.000000 0.000000 0.000000
      length 0.000000
      axis 0.0 0.0 90.0 xyz
      dof rx ry rz
   end
   begin
      id 20
      name RightHand_dum1
      direction 0.000000 0.000000 0.000000
      length 0.000000
      axis 0.0 0.0 90.0 xyz
   end
   begin
      id 21
      name RightHand_dum2
      direction -1.000000 0.000000 0.000000
      length 3.937000
      axis 0.0 0.0 90.0 xyz
   end
   begin
      id 22
      name RightHandThumb1
      direction 0.000000 0.000000 1.000000
      length 3.937000
      axis 0.0 0.0 90.0 xyz
      dof rx rz ry
   end
   begin
      id 23
      name LeftUpLeg
      direction 0.000000 -1.000000 0.000000
      length 17.323638
      axis 0.0 0.0 0.0 xyz
      dof rx ry rz
   end
   begin
      id 24
      name LeftLeg
      direction 0.000000 -1.000000 0.000000
      length 16.270368
      axis 0.0 0.0 0.0 xyz
      dof rx ry rz
   end
   begin
      id 25
      name LeftFoot
      direction 0.000000 -0.258819 0.965926
      length 4.922846
      axis 15.0 0.0 0.0 xyz
      dof rx ry rz
   end
   begin
      id 26
      name LeftToeBase
      direction 0.000000 0.000000 1.000000
      length 2.952750
      axis 0.0 0.0 0.0 xyz
      dof rx ry rz
   end
   begin
      id 27
      name RightUpLeg
      direction 0.000000 -1.000000 0.000000
      length 17.323638
      axis 0.0 0.0 0.0 xyz
      dof rx ry rz
   end
   begin
      id 28
      name RightLeg
      direction 0.000000 -1.000000 0.000000
      length 16.270368
      axis 0.0 0.0 0.0 xyz
      dof rx ry rz
   end
   begin
      id 29
      name RightFoot
      direction 0.000000 -0.258819 0.965926
      length 4.922846
      axis 15.0 0.0 0.0 xyz
      dof rx ry rz
   end
   begin
      id 30
      name RightToeBase
      direction 0.000000 0.000000 1.000000
      length 2.952750
      axis 0.0 0.0 0.0 xyz
      dof rx ry rz
   end
:hierarchy
   begin
      root Spine_dum LeftUpLeg_dum RightUpLeg_dum
      Spine_dum Spine
      LeftUpLeg_dum LeftUpLeg
      RightUpLeg_dum RightUpLeg
      Spine Spine_dum1 Spine_dum2 Spine_dum3
      Spine_dum1 Head
      Spine_dum2 LeftShoulder
      Spine_dum3 RightShoulder
      LeftShoulder LeftArm
      LeftArm LeftForeArm
      LeftForeArm LeftHand
      LeftHand LeftHand_dum1 LeftHand_dum2
      LeftHand_dum1 LeftHandThumb1
      RightShoulder RightArm
      RightArm RightForeArm
      RightForeArm RightHand
      RightHand RightHand_dum1 RightHand_dum2
      RightHand_dum1 RightHandThumb1
      LeftUpLeg LeftLeg
      LeftLeg LeftFoot
      LeftFoot LeftToeBase
      RightUpLeg RightLeg
      RightLeg RightFoot
      RightFoot RightToeBase
   end

# File created by Blade
# Date/Time:  Fri Jan 16 17:45:28 2015
# Frame Rate: 120.000 fps
#------------------------------------------------------
:FULLY-SPECIFIED
:DEGREES
1806
root -5.384655 35.275920 -10.366530 -3.376422 -7.561481 -6.031920
Spine 0.753391 -0.163814 9.887792
Head 3.662338 4.538381 -10.122588
LeftShoulder -19.611278 14.382448 -18.169655
LeftArm 20.279587 1.902361 -73.129105
LeftForeArm 4.175221 0.000000 12.068808
LeftHand 1.878140 -0.000000 -6.441111
LeftHandThumb1 -26.253704 0.000000 33.147579
RightShoulder -0.028226 0.165485 3.562277
RightArm -5.254991 32.439574 72.886918
RightForeArm 16.317752 -0.000000 10.467566
RightHand -0.543171 -0.000000 -2.572413
RightHandThumb1 -24.326973 -0.000000 -32.862282
LeftUpLeg 13.058283 16.503373 7.929949
LeftLeg -8.523181 -0.000000 0.000000
LeftFoot -15.514957 27.286477 -8.334019
LeftToeBase 22.920963 -0.000000 -0.000000
RightUpLeg 8.634823 -3.309647 4.200454
RightLeg -3.511506 -0.000000 0.000000
RightFoot -3.943392 -26.662755 3.485658
RightToeBase 13.731638 -0.000000 -0.000000
1807
root -5.380259 35.275942 -10.365694 -3.370401 -7.553215 -6.031307
Spine 0.762379 -0.155994 9.887847
Head 3.592198 4.523736 -10.062559
LeftShoulder -19.597838 14.374664 -18.128374
LeftArm 20.286271 1.971312 -73.151547
LeftForeArm 4.152201 -0.000000 12.087440
LeftHand 1.886135 0.000000 -6.483071
LeftHandThumb1 -26.253704 0.000000 33.147579
RightShoulder -0.007502 0.191366 3.557366
RightArm -5.219889 32.139973 72.802904
RightForeArm 16.308112 -0.000000 10.550210
RightHand -0.758315 -0.000000 -2.424387
RightHandThumb1 -24.326973 -0.000000 -32.862282
LeftUpLeg 13.042708 16.496169 7.918862
LeftLeg -8.504170 -0.000000 0.000000
LeftFoot -15.519083 27.282795 -8.311345
LeftToeBase 22.924386 -0.000000 -0.000000
RightUpLeg 8.630869 -3.343667 4.189219
RightLeg -3.515377 -0.000000 0.000000
RightFoot -3.936233 -26.649198 3.482122
RightToeBase 13.721677 -0.000000 -0.000000
1808
root -5.374414 35.275962 -10.365065 -3.361747 -7.546758 -6.018811
Spine 0.771522 -0.143772 9.879639
Head 3.523149 4.507428 -10.020520
LeftShoulder -19.576263 14.387022 -18.099046
LeftArm 20.310181 2.048179 -73.161391
LeftForeArm 4.144384 -0.000000 12.104688
LeftHand 1.920394 0.000000 -6.429115
LeftHandThumb1 -26.253704 0.000000 33.147579
RightShoulder 0.013409 0.235208 3.537450
RightArm -5.196942 31.817137 72.716784
RightForeArm 16.264341 -0.000000 10.662058
RightHand -0.747448 -0.000000 -2.466354
RightHandThumb1 -24.326973 -0.000000 -32.862282
LeftUpLeg 13.030215 16.467127 7.888359
LeftLeg -8.507571 -0.000000 0.000000
LeftFoot -15.522790 27.309032 -8.322549
LeftToeBase 22.942576 -0.000000 -0.000000
RightUpLeg 8.629390 -3.344740 4.168884
RightLeg -3.534863 -0.000000 0.000000
RightFoot -3.937425 -26.647895 3.502362
RightToeBase 13.728764 -0.000000 -0.000000
1809
root -5.369170 35.276079 -10.363215 -3.359005 -7.537295 -6.009586
Spine 0.779242 -0.158015 9.866839
Head 3.464972 4.495683 -9.961413
LeftShoulder -19.572653 14.390289 -18.062528
LeftArm 20.321835 2.099322 -73.184342
LeftForeArm 4.151514 0.000000 12.124301
LeftHand 1.974475 -0.000000 -6.365634
LeftHandThumb1 -26.253704 0.000000 33.147579
RightShoulder 0.060949 0.280775 3.501760
RightArm -5.146980 31.541703 72.638331
RightForeArm 16.141738 -0.000000 10.721278
RightHand -0.715419 -0.000000 -2.672974
RightHandThumb1 -24.326973 -0.000000 -32.862282
LeftUpLeg 13.017031 16.457003 7.868927
LeftLeg -8.487627 -0.000000 0.000000
LeftFoot -15.529147 27.306354 -8.320433
LeftToeBase 22.888504 -0.000000 -0.000000
RightUpLeg 8.634196 -3.397129 4.145287
RightLeg -3.547278 -0.000000 0.000000
RightFoot -3.913432 -26.604287 3.464290
RightToeBase 13.726108 -0.000000 -0.000000
1810
root -5.363959 35.276843 -10.362605 -3.349366 -7.533097 -5.985628
Spine 0.778106 -0.139754 9.832558
Head 3.414973 4.451183 -9.897865
LeftShoulder -19.552133 14.434378 -18.041995
LeftArm 20.374820 2.160132 -73.178015
LeftForeArm 4.131540 -0.000000 12.143674
LeftHand 1.969930 0.000000 -6.279994
LeftHandThumb1 -26.253704 0.000000 33.147579
RightShoulder 0.082403 0.332857 3.502847
RightArm -5.092236 31.131613 72.516509
RightForeArm 16.131943 -0.000000 10.819151
RightHand -0.864737 0.000000 -2.749326
RightHandThumb1 -24.326973 -0.000000 -32.862282
LeftUpLeg 12.991743 16.445699 7.830843
LeftLeg -8.462267 -0.000000 0.000000
LeftFoot -15.551693 27.300479 -8.375799
LeftToeBase 22.887277 -0.000000 -0.000000
RightUpLeg 8.630587 -3.420540 4.111954
RightLeg -3.568486 -0.000000 0.000000
RightFoot -3.894577 -26.592580 3.497914
RightToeBase 13.625361 -0.000000 -0.000000
1811
root -5.359379 35.276696 -10.360731 -3.346803 -7.522410 -5.975920
Spine 0.783535 -0.150481 9.814144
Head 3.361440 4.428752 -9.838209
LeftShoulder -19.542229 14.423694 -18.000546
LeftArm 20.370105 2.219360 -73.191160
LeftForeArm 4.123447 -0.000000 12.158065
LeftHand 1.965760 0.000000 -6.307384
LeftHandThumb1 -26.253704 0.000000 33.147579
RightShoulder 0.127313 0.400847 3.475760
RightArm -5.058774 31.015492 72.403115
RightForeArm 15.971215 -0.000000 10.907241
RightHand -0.966320 0.000000 -2.865066
RightHandThumb1 -24.326973 -0.000000 -32.862282
LeftUpLeg 12.981947 16.425391 7.808911
LeftLeg -8.454768 -0.000000 0.000000
LeftFoot -15.556132 27.317095 -8.379472
LeftToeBase 22.898505 -0.000000 -0.000000
RightUpLeg 8.643839 -3.454670 4.094350
RightLeg -3.600837 -0.000000 0.000000
RightFoot -3.879353 -26.592321 3.434178
RightToeBase 13.722255 -0.000000 -0.000000
1812
root -5.354400 35.276697 -10.359176 -3.332644 -7.511017 -5.973095
Spine 0.774773 -0.165176 9.810564
Head 3.310623 4.403260 -9.789963
LeftShoulder -19.550265 14.413694 -17.989725
LeftArm 20.379360 2.257217 -73.191778
LeftForeArm 4.097996 -0.000000 12.172374
LeftHand 1.935682 -0.000000 -6.363294
LeftHandThumb1 -26.253704 0.000000 33.147579
RightShoulder 0.156044 0.459185 3.448428
RightArm -4.978521 30.615514 72.299115
RightForeArm 16.057160 0.000000 10.983599
RightHand -1.055558 -0.000000 -3.033913
RightHandThumb1 -24.326973 -0.000000 -32.862282
LeftUpLeg 12.971643 16.366310 7.784445
LeftLeg -8.469043 -0.000000 0.000000
LeftFoot -15.563270 27.360234 -8.393380
LeftToeBase 22.909582 -0.000000 -0.000000
RightUpLeg 8.645116 -3.486994 4.080988
RightLeg -3.629535 -0.000000 0.000000
RightFoot -3.867730 -26.577650 3.440360
RightToeBase 13.741718 -0.000000 -0.000000
1813
root -5.349716 35.276554 -10.357741 -3.318967 -7.501258 -5.965028
Spine 0.764916 -0.168683 9.788336
Head 3.273132 4.351386 -9.714759
LeftShoulder -19.556808 14.426451 -17.971486
LeftArm 20.408807 2.254868 -73.210363
LeftForeArm 4.147864 0.000000 12.189155
LeftHand 1.950640 -0.000000 -6.355568
LeftHandThumb1 -26.253704 0.000000 33.147579
RightShoulder 0.188549 0.499030 3.439829
RightArm -4.904157 29.878973 72.194567
RightForeArm 16.516645 -0.000000 11.125498
RightHand -1.110537 -0.000000 -3.358691
RightHandThumb1 -24.326973 -0.000000 -32.862282
LeftUpLeg 12.941886 16.369374 7.764413
LeftLeg -8.440021 -0.000000 0.000000
LeftFoot -15.581748 27.345291 -8.392645
LeftToeBase 22.891757 -0.000000 -0.000000
RightUpLeg 8.648717 -3.512112 4.062458
RightLeg -3.663799 -0.000000 0.000000
RightFoot -3.838693 -26.562292 3.419473
RightToeBase 13.722306 -0.000000 -0.000000
1814
root -5.343541 35.275928 -10.354602 -3.312138 -7.516508 -5.968796
Spine 0.761255 -0.156675 9.804373
Head 3.241438 4.312403 -9.688772
LeftShoulder -19.559027 14.424966 -17.972555
LeftArm 20.420351 2.313695 -73.196479
LeftForeArm 4.128386 -0.000000 12.210290
LeftHand 1.930348 -0.000000 -6.321628
LeftHandThumb1 -26.253704 0.000000 33.147579
RightShoulder 0.228368 0.558938 3.385467
RightArm -4.849871 29.826232 72.090289
RightForeArm 16.512873 -0.000000 11.257547
RightHand -1.257579 -0.000000 -3.589928
RightHandThumb1 -24.326973 -0.000000 -32.862282
LeftUpLeg 12.948965 16.387723 7.757731
LeftLeg -8.450935 -0.000000 0.000000
LeftFoot -15.587528 27.355079 -8.379041
LeftToeBase 22.883691 -0.000000 -0.000000
RightUpLeg 8.658879 -3.517027 4.052970
RightLeg -3.693653 -0.000000 0.000000
RightFoot -3.821907 -26.530901 3.492019
RightToeBase 13.603435 -0.000000 -0.000000
1815
root -5.338266 35.276013 -10.352405 -3.306538 -7.524445 -5.968516
Spine 0.757970 -0.150051 9.813899
Head 3.213409 4.264752 -9.672254
LeftShoulder -19.568903 14.414078 -17.985155
LeftArm 20.436318 2.336218 -73.178359
LeftForeArm 4.078735 0.000000 12.220077
LeftHand 1.969529 -0.000000 -6.286244
LeftHandThumb1 -26.253704 0.000000 33.147579
RightShoulder 0.254007 0.594188 3.330593
RightArm -4.748166 30.181065 72.002019
RightForeArm 16.107000 0.000000 11.368416
RightHand -1.328151 -0.000000 -3.691931
RightHandThumb1 -24.326973 -0.000000 -32.862282
LeftUpLeg 12.946759 16.393804 7.746934
LeftLeg -8.450686 -0.000000 0.000000
LeftFoot -15.599167 27.364802 -8.383276
LeftToeBase 22.896992 -0.000000 -0.000000
RightUpLeg 8.666570 -3.530830 4.041616
RightLeg -3.714047 -0.000000 0.000000
RightFoot -3.813518 -26.511029 3.433715
RightToeBase 13.723052 -0.000000 -0.000000
1816
root -5.332358 35.276072 -10.352167 -3.289712 -7.546320 -5.963235
Spine 0.746100 -0.120763 9.817092
Head 3.198633 4.200732 -9.653870
LeftShoulder -19.551560 14.392836 -17.986617
LeftArm 20.432899 2.350921 -73.160033
LeftForeArm 4.075351 -0.000000 12.227317
LeftHand 1.966586 0.000000 -6.276356
LeftHandThumb1 -26.253704 0.000000 33.147579
RightShoulder 0.285837 0.691990 3.295790
RightArm -4.767003 30.120872 71.854556
RightForeArm 16.170152 -0.000000 11.615754
RightHand -1.496259 -0.000000 -3.967864
RightHandThumb1 -24.326973 -0.000000 -32.862282
LeftUpLeg 12.932914 16.415450 7.728212
LeftLeg -8.451346 -0.000000 0.000000
LeftFoot -15.588249 27.379390 -8.369480
LeftToeBase 22.844021 -0.000000 -0.000000
RightUpLeg 8.657961 -3.497806 4.029793
RightLeg -3.737383 -0.000000 0.000000
RightFoot -3.802303 -26.520903 3.451931
RightToeBase 13.717053 -0.000000 -0.000000
1817
root -5.325372 35.276499 -10.350914 -3.272006 -7.571252 -5.960410
Spine 0.728949 -0.086886 9.827067
Head 3.185550 4.140408 -9.634724
LeftShoulder -19.552006 14.389520 -18.012026
LeftArm 20.455546 2.376072 -73.128183
LeftForeArm 4.074897 -0.000000 12.229628
LeftHand 1.938618 -0.000000 -6.289714
LeftHandThumb1 -26.253704 0.000000 33.147579
RightShoulder 0.315308 0.745250 3.268077
RightArm -4.767870 29.673288 71.714047
RightForeArm 16.657224 -0.000000 11.922513
RightHand -1.508564 -0.000000 -4.348407
RightHandThumb1 -24.326973 -0.000000 -32.862282
LeftUpLeg 12.925290 16.434251 7.709678
LeftLeg -8.459014 -0.000000 0.000000
LeftFoot -15.594294 27.386314 -8.391146
LeftToeBase 22.839632 -0.000000 -0.000000
RightUpLeg 8.646263 -3.492166 4.014320
RightLeg -3.753807 -0.000000 0.000000
RightFoot -3.782583 -26.489799 3.525730
RightToeBase 13.598651 -0.000000 -0.000000
1818
root -5.321853 35.275965 -10.348555 -3.261810 -7.583278 -5.956306
Spine 0.710294 -0.058527 9.822582
Head 3.192756 4.076014 -9.618173
LeftShoulder -19.528078 14.387022 -18.010758
LeftArm 20.457301 2.362001 -73.113344
LeftForeArm 4.067984 -0.000000 12.235398
LeftHand 1.898800 -0.000000 -6.307232
LeftHandThumb1 -26.253704 0.000000 33.147579
RightShoulder 0.331737 0.814917 3.242285
RightArm -4.787943 30.149833 71.583057
RightForeArm 16.297867 -0.000000 12.277459
RightHand -1.527885 -0.000000 -4.590196
RightHandThumb1 -24.326973 -0.000000 -32.862282
LeftUpLeg 12.923339 16.457165 7.699722
LeftLeg -8.464556 -0.000000 0.000000
LeftFoot -15.596603 27.389915 -8.373436
LeftToeBase 22.858687 -0.000000 -0.000000
RightUpLeg 8.648108 -3.514018 3.999965
RightLeg -3.774090 -0.000000 0.000000
RightFoot -3.772142 -26.451253 3.465838
RightToeBase 13.693910 -0.000000 -0.000000
